# xmcd CD database file
#
# Track frame offsets:
#	150
#	19735
#	45055
#	64172
#
# Disc length: 1116 seconds
#
# Revision: 0
# Processed by: cddbd v1.5.2PL0 Copyright (c) Steve Scherf et al.
# Submitted via: CDex 1.51
#
DISCID=25045a04
DTITLE=Roman Photo - Partie Time [CD Maxi)
DYEAR=1996
DGENRE=Mid Tempo
TTITLE0=Partie Time (Party Time) (Radio Edit)
TTITLE1=Partie Time (Party Time) (Party Club Mix))
TTITLE2=Partie Time (Party Time) (Fresh Radio Edit)
TTITLE3=Partie Time (Party Time) (''Do It Yourself'' Mix)
EXTD=YEAR: 1996
EXTT0=
EXTT1=
EXTT2=
EXTT3=
PLAYORDER=
